<?xml version="1.0" encoding="UTF-8"?>
<svg width="400" height="400" viewBox="0 0 400 400" fill="none" xmlns="http://www.w3.org/2000/svg">
  <!-- Document -->
  <rect x="100" y="50" width="200" height="280" rx="10" fill="#FFFFFF" stroke="#0F1C3E" stroke-width="4"/>
  
  <!-- Document Lines -->
  <line x1="130" y1="100" x2="270" y2="100" stroke="#0F1C3E" stroke-width="2"/>
  <line x1="130" y1="130" x2="270" y2="130" stroke="#0F1C3E" stroke-width="2"/>
  <line x1="130" y1="160" x2="270" y2="160" stroke="#0F1C3E" stroke-width="2"/>
  <line x1="130" y1="190" x2="220" y2="190" stroke="#0F1C3E" stroke-width="2"/>
  
  <!-- Checkmark -->
  <circle cx="230" cy="220" r="40" fill="#3BA271" fill-opacity="0.2"/>
  <path d="M215 220L225 230L245 210" stroke="#3BA271" stroke-width="6" stroke-linecap="round" stroke-linejoin="round"/>
  
  <!-- AI Circuit Pattern -->
  <circle cx="300" cy="100" r="20" fill="#0F1C3E" fill-opacity="0.1"/>
  <circle cx="300" cy="100" r="5" fill="#3BA271"/>
  <circle cx="340" cy="160" r="20" fill="#0F1C3E" fill-opacity="0.1"/>
  <circle cx="340" cy="160" r="5" fill="#3BA271"/>
  <circle cx="300" cy="220" r="20" fill="#0F1C3E" fill-opacity="0.1"/>
  <circle cx="300" cy="220" r="5" fill="#3BA271"/>
  
  <line x1="300" y1="100" x2="340" y2="160" stroke="#3BA271" stroke-width="2"/>
  <line x1="340" y1="160" x2="300" y2="220" stroke="#3BA271" stroke-width="2"/>
  
  <!-- Shield -->
  <path d="M60 180C60 180 40 190 40 240V280C40 280 54 300 80 310C106 300 120 280 120 280V240C120 190 100 180 100 180H60Z" fill="#B6E1C4" fill-opacity="0.7"/>
  <path d="M80 210V280" stroke="#0F1C3E" stroke-width="3" stroke-linecap="round"/>
  <path d="M80 230L60 250" stroke="#0F1C3E" stroke-width="3" stroke-linecap="round"/>
  <path d="M80 250L60 270" stroke="#0F1C3E" stroke-width="3" stroke-linecap="round"/>
  <path d="M80 230L100 250" stroke="#0F1C3E" stroke-width="3" stroke-linecap="round"/>
  <path d="M80 250L100 270" stroke="#0F1C3E" stroke-width="3" stroke-linecap="round"/>
  <circle cx="80" cy="210" r="4" fill="#0F1C3E"/>
  <circle cx="60" cy="250" r="4" fill="#0F1C3E"/>
  <circle cx="100" cy="250" r="4" fill="#0F1C3E"/>
  <circle cx="60" cy="270" r="4" fill="#0F1C3E"/>
  <circle cx="100" cy="270" r="4" fill="#0F1C3E"/>
</svg>