<svg width="200" height="200" viewBox="0 0 200 200" fill="none" xmlns="http://www.w3.org/2000/svg">
  <path d="M100 190C149.706 190 190 149.706 190 100C190 50.2944 149.706 10 100 10C50.2944 10 10 50.2944 10 100C10 149.706 50.2944 190 100 190Z" fill="#C5E1D3" fill-opacity="0.7"/>
  <path d="M100 50V140" stroke="#0A2E36" stroke-width="8" stroke-linecap="round"/>
  <path d="M100 70L65 105" stroke="#0A2E36" stroke-width="8" stroke-linecap="round"/>
  <path d="M100 100L65 135" stroke="#0A2E36" stroke-width="8" stroke-linecap="round"/>
  <path d="M100 70L135 105" stroke="#0A2E36" stroke-width="8" stroke-linecap="round"/>
  <path d="M100 100L135 135" stroke="#0A2E36" stroke-width="8" stroke-linecap="round"/>
  <circle cx="100" cy="50" r="8" fill="#0A2E36"/>
  <circle cx="65" cy="105" r="8" fill="#0A2E36"/>
  <circle cx="135" cy="105" r="8" fill="#0A2E36"/>
  <circle cx="65" cy="135" r="8" fill="#0A2E36"/>
  <circle cx="135" cy="135" r="8" fill="#0A2E36"/>
</svg>