<svg width="600" height="200" viewBox="0 0 600 200" fill="none" xmlns="http://www.w3.org/2000/svg">
  <!-- Shield with tree structure -->
  <path d="M130 38C130 38 97 50 97 84V132C97 132 111 146 130 150C149 146 163 132 163 132V84C163 50 130 38 130 38Z" fill="#C5E1D3" fill-opacity="0.9"/>
  <path d="M130 59V129" stroke="#0A2E36" stroke-width="6" stroke-linecap="round"/>
  <path d="M130 75L105 100" stroke="#0A2E36" stroke-width="6" stroke-linecap="round"/>
  <path d="M130 100L105 125" stroke="#0A2E36" stroke-width="6" stroke-linecap="round"/>
  <path d="M130 75L155 100" stroke="#0A2E36" stroke-width="6" stroke-linecap="round"/>
  <path d="M130 100L155 125" stroke="#0A2E36" stroke-width="6" stroke-linecap="round"/>
  <circle cx="130" cy="60" r="6" fill="#0A2E36"/>
  <circle cx="105" cy="100" r="6" fill="#0A2E36"/>
  <circle cx="155" cy="100" r="6" fill="#0A2E36"/>
  <circle cx="105" cy="125" r="6" fill="#0A2E36"/>
  <circle cx="155" cy="125" r="6" fill="#0A2E36"/>
  
  <!-- Kavaro text -->
  <path d="M210 115L225 75H240L260 130H245L235 95L220 135H210L195 95L185 130H170L190 75H205L220 115H210Z" fill="white"/>
  <path d="M270 110C270 105 272 102 275 100C278 98 282 97 287 97H295V95C295 93 294 92 293 91C292 90 290 90 288 90C286 90 285 90 284 91C283 92 282 93 282 95H270C270 92 271 89 273 87C275 85 277 83 280 82C283 81 286 80 290 80C297 80 302 82 305 85C308 88 310 93 310 99V120H297V114C296 116 294 118 292 119C290 120 287 121 284 121C279 121 275 119 272 117C271 115 270 113 270 110ZM295 107H288C286 107 285 107 284 108C283 109 282 110 282 111C282 113 283 114 284 115C285 116 286 116 288 116C290 116 292 115 293 114C294 113 295 111 295 109V107Z" fill="white"/>
  <path d="M335 120L320 95V120H305V70H320V94L335 70H350L330 95L350 120H335Z" fill="white"/>
  <path d="M370 110C370 105 372 102 375 100C378 98 382 97 387 97H395V95C395 93 394 92 393 91C392 90 390 90 388 90C386 90 385 90 384 91C383 92 382 93 382 95H370C370 92 371 89 373 87C375 85 377 83 380 82C383 81 386 80 390 80C397 80 402 82 405 85C408 88 410 93 410 99V120H397V114C396 116 394 118 392 119C390 120 387 121 384 121C379 121 375 119 372 117C371 115 370 113 370 110ZM395 107H388C386 107 385 107 384 108C383 109 382 110 382 111C382 113 383 114 384 115C385 116 386 116 388 116C390 116 392 115 393 114C394 113 395 111 395 109V107Z" fill="white"/>
  <path d="M425 121C420 121 416 120 413 117C410 114 409 111 408 106L420 105C421 108 423 110 427 110C429 110 430 109 431 109C432 108 433 107 433 106C433 105 432 104 431 103C430 102 427 101 423 100C420 99 418 98 416 97C414 96 412 95 411 93C410 91 409 89 409 86C409 82 411 78 414 76C417 74 421 73 425 73C430 73 434 74 437 77C440 80 442 83 442 88L430 89C429 86 428 85 425 85C423 85 422 85 421 86C420 87 420 88 420 89C420 90 421 91 422 91C423 92 425 93 429 94C432 95 435 96 437 97C439 98 441 99 442 101C443 103 444 105 444 108C444 111 443 113 442 115C441 117 439 118 436 119C433 120 430 121 425 121Z" fill="white"/>
  <path d="M460 120V82H445V72H490V82H475V120H460Z" fill="white"/>
  <path d="M505 120C502 120 500 119 498 117C496 115 495 113 495 110V82H490V72H495V60H510V72H520V82H510V105C510 106 510 106 511 107C512 107 513 107 515 107H520V120H505Z" fill="white"/>
  
  <!-- AI Text -->
  <path d="M540 120L530 70H545L550 102L555 70H575L580 102L585 70H600L590 120H570L565 90L560 120H540Z" fill="#2B8C74"/>
  <path d="M525 120V70H540V120H525Z" fill="#2B8C74"/>
</svg>