<svg width="300" height="80" viewBox="0 0 300 80" fill="none" xmlns="http://www.w3.org/2000/svg">
  <!-- Shield with tree structure -->
  <path d="M40 10C40 10 20 16 20 35V55C20 55 28 63 40 65C52 63 60 55 60 55V35C60 16 40 10 40 10Z" fill="#B6E1C4"/>
  <path d="M40 22V50" stroke="#1B1D2F" stroke-width="3" stroke-linecap="round"/>
  <path d="M40 28L28 40" stroke="#1B1D2F" stroke-width="3" stroke-linecap="round"/>
  <path d="M40 40L28 50" stroke="#1B1D2F" stroke-width="3" stroke-linecap="round"/>
  <path d="M40 28L52 40" stroke="#1B1D2F" stroke-width="3" stroke-linecap="round"/>
  <path d="M40 40L52 50" stroke="#1B1D2F" stroke-width="3" stroke-linecap="round"/>
  <circle cx="40" cy="22" r="3" fill="#1B1D2F"/>
  <circle cx="28" cy="40" r="3" fill="#1B1D2F"/>
  <circle cx="52" cy="40" r="3" fill="#1B1D2F"/>
  <circle cx="28" cy="50" r="3" fill="#1B1D2F"/>
  <circle cx="52" cy="50" r="3" fill="#1B1D2F"/>
  
  <!-- Kavaro text -->
  <path d="M80 45L90 25L96 25L108 45H102L95 32L88 50H83L77 32L70 45H65L76 25H82L86 45H80Z" fill="#FFFFFF"/>
  <path d="M112 35C112 34 113 32 114 31C116 30 118 30 120 30H126V28C126 27 125 26 125 26C124 25 123 25 122 25C121 25 120 25 120 26C119 27 119 28 119 28H113C113 27 113 25 114 24C115 23 117 22 118 21C120 21 122 20 124 20C128 20 131 21 133 23C135 25 136 28 136 31V40H127V38C127 39 126 40 124 40C123 41 121 41 120 41C117 41 115 40 113 39C113 38 112 37 112 35ZM126 32H121C120 32 120 32 119 33C119 33 118 34 118 35C118 36 119 36 119 37C120 37 120 37 121 37C122 37 123 37 124 36C125 36 126 35 126 33V32Z" fill="#FFFFFF"/>
  <path d="M140 20L150 30L155 20H162L152 35L162 50H155L150 40L140 50H133L144 35L133 20H140Z" fill="#FFFFFF"/>
  <path d="M170 35C170 34 171 32 172 31C174 30 176 30 178 30H184V28C184 27 183 26 183 26C182 25 181 25 180 25C179 25 178 25 178 26C177 27 177 28 177 28H171C171 27 171 25 172 24C173 23 175 22 176 21C178 21 180 20 182 20C186 20 189 21 191 23C193 25 194 28 194 31V40H185V38C185 39 184 40 182 40C181 41 179 41 178 41C175 41 173 40 171 39C171 38 170 37 170 35ZM184 32H179C178 32 178 32 177 33C177 33 176 34 176 35C176 36 177 36 177 37C178 37 178 37 179 37C180 37 181 37 182 36C183 36 184 35 184 33V32Z" fill="#FFFFFF"/>
  <path d="M200 41C197 41 195 40 193 39C192 38 191 37 190 35L196 34C197 36 198 36 200 36C201 36 202 36 202 35C203 35 203 34 203 34C203 33 203 33 202 32C202 32 200 32 198 31C196 31 194 31 193 30C192 30 191 29 190 28C190 27 189 26 189 25C189 23 190 21 191 20C193 19 195 18 198 18C200 18 203 19 204 20C206 22 207 23 207 26L200 27C200 25 199 24 197 24C196 24 196 24 195 25C195 25 194 26 194 26C194 27 195 27 195 27C196 28 197 28 199 29C201 29 202 30 204 30C205 31 206 31 206 32C207 33 207 34 207 35C207 37 206 38 206 39C205 40 204 41 202 41C201 42 199 41 200 41Z" fill="#FFFFFF"/>
  <path d="M215 40V25H207V20H230V25H223V40H215Z" fill="#FFFFFF"/>
  <path d="M235 40C233 40 232 40 231 39C230 38 229 37 229 35V25H227V20H229V15H237V20H242V25H237V36C237 36 237 37 238 37C238 37 239 37 240 37H242V40H235Z" fill="#FFFFFF"/>
  
  <!-- AI Text -->
  <path d="M252 20L258 40H264L270 20H276L269 45H252L246 20H252Z" fill="#2B8C74"/>
  <path d="M282 20V45H288V20H282Z" fill="#2B8C74"/>
</svg>